<svg xmlns="http://www.w3.org/2000/svg" viewBox="0 0 303.93 57.67"><defs><style>.cls-1{font-size:26.42px;font-family:FuturaPT-Book, Futura PT;letter-spacing:0.04em;}.cls-1,.cls-2{fill:#002856;}</style></defs><g id="Capa_2" data-name="Capa 2"><g id="Capa_1-2" data-name="Capa 1"><text class="cls-1" transform="translate(94.96 37.45)">Carrier (Wi-Fi)</text><path class="cls-2" d="M36.53,0A36.52,36.52,0,0,0,6.75,57.67h3.41a33.81,33.81,0,1,1,52.74,0h3.41A36.52,36.52,0,0,0,36.53,0Z"/><circle class="cls-2" cx="36.53" cy="54.13" r="3.43"/><path class="cls-2" d="M47.35,49.52a2,2,0,0,1-1.59-.79s-3.48-4.49-9-4.49-9.53,4.53-9.57,4.58a2,2,0,1,1-3-2.56c.21-.25,5.17-6,12.59-6s12,5.82,12.14,6.07a2,2,0,0,1-.4,2.77A1.93,1.93,0,0,1,47.35,49.52Z"/><path class="cls-2" d="M18.06,40.29a2,2,0,0,1-1.35-3.43A31.88,31.88,0,0,1,37,29.21,28.12,28.12,0,0,1,56.43,37a2,2,0,1,1-2.87,2.72A24.61,24.61,0,0,0,37,33.17,28.16,28.16,0,0,0,19.4,39.76,1.93,1.93,0,0,1,18.06,40.29Z"/><path class="cls-2" d="M61.6,32.12a2,2,0,0,1-1.46-.64,33.57,33.57,0,0,0-23-9.39c-14.26,0-24.21,9.38-24.31,9.48a2,2,0,1,1-2.74-2.85c.44-.44,11.15-10.59,27.05-10.59A36.92,36.92,0,0,1,63.06,28.81a2,2,0,0,1-1.46,3.31Z"/></g></g></svg>