<svg xmlns="http://www.w3.org/2000/svg" viewBox="0 0 5.73 5.73"><defs><style>.cls-1{fill:#f6f1ec;}</style></defs><g id="Capa_2" data-name="Capa 2"><g id="Portto"><path class="cls-1" d="M2.86.52H4a1.73,1.73,0,0,1,.53.1.9.9,0,0,1,.54.54,1.59,1.59,0,0,1,.1.54c0,.3,0,.39,0,1.15s0,.86,0,1.16a1.47,1.47,0,0,1-.1.53.9.9,0,0,1-.54.54,1.47,1.47,0,0,1-.53.1c-.3,0-.39,0-1.16,0s-.85,0-1.15,0a1.59,1.59,0,0,1-.54-.1,1,1,0,0,1-.33-.21,1,1,0,0,1-.21-.33A1.73,1.73,0,0,1,.53,4c0-.3,0-.39,0-1.16s0-.85,0-1.15a1.9,1.9,0,0,1,.1-.54A1,1,0,0,1,.84.84,1,1,0,0,1,1.17.63a1.9,1.9,0,0,1,.54-.1H2.86m0-.52C2.09,0,2,0,1.68,0A2,2,0,0,0,1,.15,1.36,1.36,0,0,0,.48.48,1.36,1.36,0,0,0,.15,1,2,2,0,0,0,0,1.68C0,2,0,2.08,0,2.86S0,3.74,0,4a2,2,0,0,0,.13.7,1.25,1.25,0,0,0,.33.5A1.36,1.36,0,0,0,1,5.57a2,2,0,0,0,.69.14c.31,0,.41,0,1.18,0s.88,0,1.18,0a2,2,0,0,0,.7-.14,1.25,1.25,0,0,0,.5-.33,1.25,1.25,0,0,0,.33-.5A2,2,0,0,0,5.71,4c0-.3,0-.4,0-1.18s0-.87,0-1.18A2,2,0,0,0,5.57,1,1.36,1.36,0,0,0,5.24.48a1.25,1.25,0,0,0-.5-.33A2,2,0,0,0,4,0c-.3,0-.4,0-1.18,0"/><path class="cls-1" d="M2.86,1.39A1.47,1.47,0,1,0,4.33,2.86,1.47,1.47,0,0,0,2.86,1.39m0,2.43a1,1,0,1,1,1-1,1,1,0,0,1-1,1"/><path class="cls-1" d="M4.73,1.33a.34.34,0,1,1-.68,0,.34.34,0,0,1,.68,0"/></g></g></svg>