<svg xmlns="http://www.w3.org/2000/svg" viewBox="0 0 5.31 5.31"><defs><style>.cls-1{fill:#f6f1ec;fill-rule:evenodd;}</style></defs><g id="Capa_2" data-name="Capa 2"><g id="Portto"><path class="cls-1" d="M5.31,2.52a2.61,2.61,0,0,0-5.21,0v.12A2.57,2.57,0,0,0,.47,3.93L0,5.31l1.44-.45a2.71,2.71,0,0,0,1.26.32A2.59,2.59,0,0,0,5.31,2.59V2.52M2.7,4.76A2.17,2.17,0,0,1,1.5,4.4l-.84.27.27-.81A2.15,2.15,0,0,1,.51,2.59c0-.07,0-.14,0-.21a2.19,2.19,0,0,1,4.37,0,.91.91,0,0,1,0,.17A2.19,2.19,0,0,1,2.7,4.76"/><path class="cls-1" d="M3.9,3.11,3.46,2.9c-.06,0-.1,0-.14,0s-.17.2-.2.24S3,3.23,3,3.2a1.79,1.79,0,0,1-.52-.31,1.76,1.76,0,0,1-.35-.44.08.08,0,0,1,0-.13l.09-.11,0,0a.3.3,0,0,1,0-.08.11.11,0,0,0,0-.11s-.14-.35-.2-.47S2,1.41,2,1.41H1.83a.2.2,0,0,0-.17.08A.68.68,0,0,0,1.43,2a.78.78,0,0,0,0,.21,1.38,1.38,0,0,0,.22.44,2.78,2.78,0,0,0,1.1,1c.65.25.65.17.76.16A.62.62,0,0,0,4,3.49a.47.47,0,0,0,0-.31s-.06,0-.12-.07"/></g></g></svg>